<svg width="38" height="38" viewBox="0 0 38 38" fill="none" xmlns="http://www.w3.org/2000/svg">
<path d="M19.0022 35.9999C28.3911 35.9986 36.0012 28.3865 36 18.9976C35.9988 9.6088 28.3866 1.99864 18.9978 1.99986C9.60894 2.00109 1.99877 9.61324 2 19.0021C2.00123 28.3909 9.61338 36.0011 19.0022 35.9999Z" stroke="white" stroke-opacity="0.5" stroke-width="2"/>
<path d="M18.9979 2.99986C15.8334 3.00028 12.7401 3.93906 10.1091 5.69751C7.47819 7.45596 5.42775 9.95508 4.21713 12.8789C3.00651 15.8026 2.69008 19.0197 3.30785 22.1234C3.92562 25.227 5.44984 28.0777 7.68778 30.3151C9.92571 32.5524 12.7768 34.0759 15.8806 34.6928C18.9844 35.3098 22.2014 34.9925 25.1249 33.7811C28.0483 32.5698 30.5469 30.5187 32.3047 27.8872C34.0624 25.2558 35.0004 22.1623 35 18.9978C34.9995 14.7543 33.3132 10.6849 30.3122 7.68468C27.3113 4.68449 23.2414 2.99931 18.9979 2.99986ZM23.0592 12.4493L19.9992 12.4497L19.9996 15.8997L22.9996 15.8993L23.0001 19.3393L20.0001 19.3397L20.0012 27.9997L17.0012 28.0001L17.0001 19.3401L14.0001 19.3405L13.9996 15.9005L16.9996 15.9001L16.9992 12.4501C16.944 11.5959 17.228 10.7544 17.7896 10.1083C18.3513 9.46229 19.1451 9.06392 19.9987 8.99973L22.9987 8.99934L22.9992 12.4493L23.0592 12.4493Z" fill="white" fill-opacity="0.8"/>
</svg>
